<svg width="32" height="36" viewBox="0 0 32 36" fill="none" xmlns="http://www.w3.org/2000/svg">
<path d="M12.5819 14.025V12.5818C12.114 12.517 11.6369 12.4766 11.1519 12.4766C5.29936 12.4766 0.539062 17.2999 0.539062 23.2287C0.539062 26.8667 2.33316 30.0861 5.06996 32.0323C5.01975 31.978 4.97067 31.9236 4.92274 31.8681C3.24733 29.9658 2.28409 27.4576 2.28409 24.7112C2.28409 18.8679 6.8458 14.1603 12.5819 14.025Z" fill="#25F4EE"/>
<path d="M12.8326 29.6626C15.4439 29.6626 17.6157 27.5187 17.7127 24.896L17.7241 1.52759L21.9104 1.53453L21.9001 1.48249C21.8122 1.00144 21.7643 0.5065 21.7643 0H15.9985L15.9894 23.4123C15.8924 26.0339 13.7627 28.1385 11.1526 28.1385C10.3412 28.1385 9.57766 27.9327 8.9043 27.5742C9.78423 28.8127 11.2154 29.6626 12.8326 29.6626Z" fill="#25F4EE"/>
<path d="M29.7857 9.52232V8.1281C28.1753 8.1281 26.6757 7.64371 25.418 6.8125C26.5376 8.11539 28.0589 9.14775 29.7857 9.52232Z" fill="#25F4EE"/>
<path d="M25.4168 6.81303C24.1899 5.38489 23.4446 3.52194 23.4446 1.48438H21.8594C22.2657 3.71043 23.6101 5.61963 25.4168 6.81303Z" fill="#FE2C55"/>
<path d="M11.1502 18.2727C8.47728 18.2727 6.25977 20.5207 6.25977 23.2278C6.25977 25.1139 7.35996 26.7514 8.90184 27.5747C8.32663 26.7675 7.98425 25.78 7.98425 24.7103C7.98425 22.0021 10.1584 19.7991 12.8313 19.7991C13.33 19.7991 13.8082 19.8824 14.2613 20.0258V14.0623C13.7934 13.9975 13.3163 13.957 12.8313 13.957C12.7468 13.957 12.6647 13.9617 12.5802 13.964L12.5403 13.9698L12.5357 18.4739C12.0837 18.3305 11.6501 18.2727 11.1502 18.2727Z" fill="#FE2C55"/>
<path d="M29.7852 9.43156L29.7544 9.42578L29.7407 13.9218C26.7505 13.9218 23.992 12.9354 21.73 11.291L21.7231 23.2296C21.7231 29.1585 17.0016 33.939 11.1503 33.939C8.88938 33.939 6.7917 33.2602 5.06836 32.0344C7.0074 34.1437 9.76817 35.4654 12.8302 35.4654C18.6816 35.4654 23.4419 30.6421 23.4419 24.7133V12.8406C25.7028 14.485 28.4738 15.4541 31.4629 15.4541V9.61196C30.8899 9.61196 30.3284 9.54952 29.7852 9.43156Z" fill="#FE2C55"/>
<path d="M21.7641 23.2292V11.3577C24.025 13.002 26.796 13.9711 29.785 13.9711V9.4311C28.0583 9.05643 26.5369 8.11744 25.4173 6.81303C23.6107 5.61963 22.3073 3.71043 21.8999 1.48438H17.6783L17.6691 24.8967C17.5721 27.5182 15.4425 29.6229 12.8324 29.6229C11.2152 29.6229 9.784 28.8134 8.90407 27.5761C7.36105 26.7539 6.30536 25.1152 6.30536 23.2292C6.30536 20.5209 8.47951 18.318 11.1524 18.318C11.6511 18.318 12.1293 18.4012 12.5824 18.5446V13.9642C6.84633 14.0995 2.2207 18.8661 2.2207 24.7105C2.2207 27.5367 3.30378 30.1109 5.07049 32.0316C6.79383 33.2574 8.89037 33.9801 11.1524 33.9801C17.0038 33.9825 21.7641 29.1592 21.7641 23.2292Z" fill="black"/>
</svg>
